<svg xmlns="http://www.w3.org/2000/svg" version="1.1" xmlns:xlink="http://www.w3.org/1999/xlink" xmlns:svgjs="http://svgjs.dev/svgjs" width="100%" height="100%" viewBox="0 0 1000 600"><rect width="1000" height="600" x="0" y="0" fill="#cc313d"/><g><circle r="166.66666666666666" cx="405.54369608561194" cy="427.76582053856555" fill="#f7c5cc" transform="matrix(0.5232820288627968,0,0,0.5232820288627967,0,76.15783443569143)"/><path d="M395.8320071726689 499.14098607946534Q394.9181440414613 501.0543870104313 393.63302401320055 502.1681577015906Q392.3193457620896 503.25337016989965 389.9204550426695 502.36806526154226Q387.49300610039927 501.45420213033464 386.6077011920419 499.8549416507213Q385.6938380608342 498.2556811711079 385.1797900495299 496.34228024014186Q384.69430026107585 494.4288793091759 384.18025224977157 492.6297112696109Q383.6947624613175 490.8019850071956 382.26685131880555 489.60253964748557L382.26685131880555 489.60253964748557Q379.2682379195305 487.40355648801716 378.46860767972385 483.57675462608523L378.46860767972385 483.57675462608523Q377.2691623200138 476.3515242449748 377.15492942861283 466.32758802454106Q377.0692547600621 456.275093581257 376.86934720011044 452.47684994217525Q376.66943964015877 448.65004808024327 376.1553916288545 446.85088004067825Q375.6413436175502 445.02315377826295 374.9559462691444 444.6233386583596Q374.24199069788847 444.2235235384563 373.04254533817846 443.62380085860127L373.04254533817846 443.62380085860127Q370.84356217871004 442.6242630588429 369.8154661561015 436.51280336889187Q368.81592835634314 430.3727854560905 369.2157434762465 422.1480172752218L369.2157434762465 422.1480172752218Q370.01537371605315 406.6694604903924 367.41657543668146 395.6459864702002L367.41657543668146 395.6459864702002Q365.0176847172614 385.1936769070129 365.6174073971164 375.85513803498486Q366.21713007697144 366.5165991629568 367.41657543668146 362.71835552387506L367.41657543668146 362.71835552387506Q369.8154661561015 353.8653064403011 376.1553916288545 355.0647518000111Q382.4667588787572 356.29275538257133 386.17932784928826 356.09284782261966Q389.9204550426695 355.86438203981777 392.3193457620896 355.0647518000111Q394.7182364815096 354.2651215602044 396.7458703038766 353.4654913203977Q398.7449459033933 352.665861080591 402.057699754021 352.78009397199196Q405.3704536046487 352.8657686405427 408.0834847754213 353.77963177175036Q410.796515946194 354.66493668010776 413.5952217855174 355.46456691991443L413.5952217855174 355.46456691991443Q421.0203597265795 357.8920158621847 425.24697670841476 357.692108302233Q429.47359369025014 357.49220074228134 431.87248440967016 357.1780602909287Q434.2713751290902 356.89247806242633 436.0991013915055 356.89247806242633L436.0991013915055 356.89247806242633Q439.89734503058725 356.89247806242633 442.4104686414082 358.891553661943Q444.92359225222924 360.89062926145976 445.3234073721326 363.31807820373Q445.7232224920359 365.7169689231501 445.52331493208425 368.3157672025218L445.52331493208425 368.3157672025218Q445.12349981218097 373.34201442416384 443.72414689251923 376.65476827479154Q442.32479397285755 379.96752212541924 442.2105610814566 382.1950635077378Q442.1248864129059 384.3940466672062 442.32479397285755 386.50735515812386Q442.5247015328092 388.62066364904155 442.7246090927609 390.61973924855823Q442.92451665271255 392.618814848075 442.4104686414082 394.9320308989443Q441.9249788529542 397.24524694981363 439.89734503058725 399.558463000683Q437.8982694310705 401.8716790515523 435.2994711516988 403.6708470911173L435.2994711516988 403.6708470911173Q429.47359369025014 407.2691831702474 425.8466993882698 406.26964537048906Q422.24836330913973 405.2701075707307 420.53486993812544 404.584710222325Q418.8213765671111 403.870754651069 417.22211608749774 403.47093953116564L417.22211608749774 403.47093953116564Q413.79512934546904 402.4714017314073 410.59660838624234 403.271031971214Q407.36952920416536 404.07066221102065 406.17008384445535 406.26964537048906Q404.97063848474534 408.49718675280764 405.25622071324767 410.8960774722277Q405.57036116460034 413.2949681916478 407.56943676411703 415.20836912261376Q409.597070586484 417.1217700535797 413.10973199706336 417.32167761353145Q416.62239340764273 417.5215851734831 418.8213765671111 417.32167761353145Q421.0203597265795 417.1217700535797 422.4482708690914 417.1217700535797L422.4482708690914 417.1217700535797Q425.4468842683665 417.1217700535797 427.8457749877865 419.7205683329515L427.8457749877865 419.7205683329515Q431.4726692897668 423.9471853147868 427.2460523079315 432.3718610556072L427.2460523079315 432.3718610556072Q426.24651450817316 434.59940243792585 425.56111715976743 438.19773851705594Q424.8471615885114 441.82463281903625 423.8476237887531 445.33729422961557Q422.84808598899474 448.84995564019493 421.3345001779321 451.1631716910643Q419.82091436686943 453.4763877419336 417.82183876735274 453.07657262203026Q415.822763167836 452.6767575021269 415.10880759658005 451.84856903947Q414.3948520253241 451.04893879966335 413.5952217855174 450.4492161198083L413.5952217855174 450.4492161198083Q411.9959613059041 448.84995564019493 409.99688570638733 449.44967832004994L409.99688570638733 449.44967832004994Q406.76980652431035 450.2493085598566 406.2843167358563 455.1613228900977Q405.770268724552 460.101895443189 405.9701762845037 464.8996768820291Q406.17008384445535 469.7260165437194 406.48422429580796 473.15300328574807Q406.76980652431035 476.5514318049265 406.369991404407 479.97841854695514L406.369991404407 479.97841854695514Q405.770268724552 487.8033716079205 400.3442063830066 491.83008102980415L400.3442063830066 491.83008102980415Q398.5450383434416 493.0295263895142 397.631175212234 495.14283488043185Q396.7458703038766 497.2275851484993 395.8320071726689 499.14098607946534Z " fill="#cc313d" transform="matrix(0.5232820288627968,0,0,0.5232820288627967,0,76.15783443569143)"/><path d="M683.7868765444384 492.95435787100604Q682.9360184179595 494.73584207332107 681.7394991775986 495.7728254149672Q680.5163906207853 496.78321944016085 678.2828880387783 495.95895063013444Q676.0227961403189 495.1080925036556 675.1985273302924 493.61909078231764Q674.3476692038136 492.1300890609796 673.8690615076692 490.3486048586645Q673.4170431279773 488.56712065634946 672.938435431833 486.89199371984415Q672.4864170521411 485.19027746688647 671.1569512295179 484.073526175883L671.1569512295179 484.073526175883Q668.3650730020091 482.02614880904326 667.6205721413402 478.4631804044131L667.6205721413402 478.4631804044131Q666.5038208503366 471.7360833419396 666.3974635845268 462.40323326712473Q666.3176956351695 453.0437938758574 666.1315704200022 449.5074147876796Q665.9454452048349 445.9444463830494 665.4668375086906 444.2693194465442Q664.9882298125463 442.5676031935865 664.350086217687 442.19535276325195Q663.6853533063754 441.8231023329175 662.568602015372 441.2647266874157L662.568602015372 441.2647266874157Q660.5212246485322 440.33410061157946 659.5640092562435 434.64398689075216Q658.6333831804072 428.9272838534724 659.0056336107418 421.2695607151627L659.0056336107418 421.2695607151627Q659.7501344714108 406.85815119792716 657.3305066742365 396.594675047276L657.3305066742365 396.594675047276Q655.0970040922296 386.8629852256741 655.6553797377313 378.16827874571834Q656.2137553832331 369.4735722657626 657.3305066742365 365.93719317758485L657.3305066742365 365.93719317758485Q659.5640092562435 357.69450507732097 665.4668375086906 358.81125636832445Q671.3430764446852 359.9545969757804 674.7996875835055 359.7684717606132Q678.2828880387783 359.55575722899346 680.5163906207853 358.81125636832445Q682.7498932027922 358.06675550765544 684.6377346709172 357.3222546469865Q686.4989868225897 356.5777537863175 689.5833475310756 356.6841110521273Q692.6677082395613 356.7638790014847 695.1936933025454 357.61473712796356Q697.7196783655295 358.43900593799 700.325431377871 359.183506798659L700.325431377871 359.183506798659Q707.2386536555117 361.44359869711843 711.1738724904765 361.25747348195114Q715.1090913254411 361.0713482667839 717.3425939074481 360.77886578580683Q719.576096489455 360.5129726212822 721.2778127424128 360.5129726212822L721.2778127424128 360.5129726212822Q724.8141918305905 360.5129726212822 727.1540516784073 362.3742247729547Q729.4939115262242 364.23547692462716 729.8661619565587 366.4955688230866Q730.2384123868932 368.7290714050936 730.052287171726 371.14869920226784L730.052287171726 371.14869920226784Q729.6800367413914 375.82841889790154 728.3771602352207 378.91277960638735Q727.07428372905 381.99714031487315 726.96792646324 384.07110699816536Q726.8881585138827 386.11848436500514 727.07428372905 388.08609378248747Q727.2604089442173 390.05370319996985 727.4465341593844 391.9149553516423Q727.6326593745516 393.7762075033148 727.1540516784073 395.9299421359644Q726.7020332987154 398.083676768614 724.8141918305905 400.2374114012636Q722.952939678918 402.3911460339132 720.5333118817438 404.0662729704184L720.5333118817438 404.0662729704184Q715.1090913254411 407.41652684342887 711.7322481359781 406.4859007675927Q708.3819942629677 405.55527469175644 706.7866352758199 404.91713109689726Q705.191276288672 404.25239818558566 703.7022745673339 403.8801477552512L703.7022745673339 403.8801477552512Q700.5115565930382 402.9495216794149 697.5335531503623 403.6940225400839Q694.5289603912338 404.4385234007529 693.4122091002304 406.4859007675927Q692.295457809227 408.55986745088484 692.5613509737516 410.79337003289186Q692.8538334547286 413.0268726148988 694.7150856064011 414.8083568172139Q696.6029270745261 416.58984101952905 699.8734129981792 416.7759662346963Q703.1438989218323 416.9620914498635 705.191276288672 416.7759662346963Q707.2386536555117 416.58984101952905 708.5681194781349 416.58984101952905L708.5681194781349 416.58984101952905Q711.3599977056437 416.58984101952905 713.5935002876506 419.00946881670325L713.5935002876506 419.00946881670325Q716.9703434771136 422.94468765166795 713.035124642149 430.78853600514486L713.035124642149 430.78853600514486Q712.1044985663127 432.8625026884371 711.4663549714535 436.2127565614475Q710.8016220601419 439.5895997509105 709.8709959843056 442.86008567456355Q708.9403699084694 446.13057159821665 707.5311361364888 448.28430623086626Q706.1219023645083 450.4380408635158 704.2606502128358 450.06579043318135Q702.3993980611633 449.6935400028469 701.7346651498517 448.92244982572544Q701.0699322385401 448.1779489650564 700.325431377871 447.61957331955466L700.325431377871 447.61957331955466Q698.836429656533 446.13057159821665 696.9751775048605 446.6889472437184L696.9751775048605 446.6889472437184Q693.9705847457321 447.4334481043874 693.5185663660402 452.00681053421124Q693.0399586698959 456.60676228048754 693.2260838850632 461.0737674445015Q693.4122091002304 465.56736192496794 693.7046915812075 468.75807989926363Q693.9705847457321 471.9222085571069 693.5983343153976 475.1129265314026L693.5983343153976 475.1129265314026Q693.0399586698959 482.39839923937774 687.9879885439277 486.1474928591752L687.9879885439277 486.1474928591752Q686.3128616074224 487.2642441501787 685.4620034809436 489.23185356766106Q684.6377346709172 491.1728736686909 683.7868765444384 492.95435787100604ZM745.3943227647977 496.4109690098264L745.3943227647977 496.4109690098264Q743.5064812966727 496.9693446553281 741.1932107653084 496.14507584530173Q738.8533509174915 495.29421771882284 737.9227248416553 492.95435787100604Q736.9655094493667 490.6144980231891 736.699616284842 487.5301373147033Q736.4071338038649 484.4457766062175 736.5932590190321 480.9093975180397Q736.7793842341994 477.34642911340956 736.7793842341994 473.99617524039905L736.7793842341994 473.99617524039905Q736.7793842341994 466.49798800080424 734.3597564370251 464.45061063396446L734.3597564370251 464.45061063396446Q729.3077863110569 460.701517014167 730.2384123868932 445.38607073754764L730.2384123868932 445.38607073754764Q731.1690384627294 436.58500699178205 732.3123790701854 431.34691165064663L732.3123790701854 431.34691165064663Q734.1736312218579 422.7585624365007 734.067273956048 416.7759662346963Q733.9875060066906 410.79337003289186 734.4395243863826 407.41652684342887Q734.9181320825269 404.0662729704184 735.5828649938385 401.83277038841146Q736.2210085886976 399.572678489952 737.1516346645338 397.15305069277775Q738.1088500568226 394.70683357915107 738.8533509174915 389.0964878076811L738.8533509174915 389.0964878076811Q740.714603069164 375.0839180372325 742.203604790502 371.73366416422203L742.203604790502 371.73366416422203Q744.2775714737943 367.0539444685883 747.1758069671129 362.08174229197755Q750.0740424604314 357.1361294318192 751.9352946121039 355.461002495314L751.9352946121039 355.461002495314Q756.2427638774031 352.2702845210183 764.2727374460472 354.90262684981224L764.2727374460472 354.90262684981224Q770.2553336478517 356.95000421665196 775.3870717231773 356.20550335598296Q780.5453991149553 355.461002495314 783.2575093931066 355.54077044467135Q785.969619671258 355.6471277104812 789.3198735442685 357.61473712796356Q792.6967167337314 359.55575722899346 794.5579688854039 362.2678675071448Q796.4192210370765 364.9799777852961 797.1637218977454 368.1706957595918L797.1637218977454 368.1706957595918Q798.4931877203686 373.5949163158945 797.3498471129126 381.9173723655158Q796.2330958219092 390.2398284151371 796.5255783028863 395.37156649046267Q796.7914714674109 400.50330456578826 798.7590808848933 405.1032563120645Q800.7266903023756 409.6766187418883 801.3914232136872 412.38872902003965Q802.0295668085464 415.10083929819103 802.5081745046907 417.81294957634236Q802.9601928843825 420.5250598544937 803.2526753653597 423.60942056297955Q803.5451578463368 426.6937812714654 804.3694266563632 430.6024107899776Q805.220284782842 434.5376296249423 805.3000527321994 436.8774894727591Q805.4064099980093 439.217349320576 805.220284782842 440.706351041914Q805.0341595676748 442.19535276325195 804.7416770866977 443.4184613200653Q804.475783922173 444.6415698768787 804.927802301865 447.1675549398628Q805.4064099980093 449.6935400028469 804.927802301865 452.67154344552284Q804.475783922173 455.6761362046513 803.9174082766713 458.46801443216003L803.9174082766713 458.46801443216003Q801.8434415933791 467.05636364630595 802.2156920237136 470.6193320509361L802.2156920237136 470.6193320509361Q802.9601928843825 476.9741786830751 802.2156920237136 479.6862889612264Q801.4711911630445 482.39839923937774 800.8330475681854 484.073526175883Q800.1683146568739 485.7752424288407 799.317456530395 488.75324587151664Q798.4931877203686 491.75783863064515 795.8608453915747 494.17746642781935Q793.2550923792331 496.59709422499355 790.9152325314163 495.6664681491573Q788.5753726835994 494.73584207332107 787.9106397722878 492.95435787100604Q787.2724961774287 491.1728736686909 786.7938884812844 489.3116215170184Q786.3418701015925 487.4503693653459 785.6771371902809 485.9613676440079Q785.0124042789693 484.4457766062175 783.3372773424641 484.2596513910502L783.3372773424641 484.2596513910502Q780.359273899788 483.88740096071575 780.1731486846209 480.8030402522299Q779.9870234694536 477.71867954374403 780.2529166339782 475.37881969592723Q780.5453991149553 473.0389598481104 779.9870234694536 470.6193320509361Q779.4020585074993 468.1997042537619 778.0991820013286 465.9396123553025L778.0991820013286 465.9396123553025Q774.7489281283181 460.1431413686653 770.2553336478517 459.5847657231635L770.2553336478517 459.5847657231635Q763.5282365853783 458.65413964732727 760.8958942565844 466.1257375704697L760.8958942565844 466.1257375704697Q760.3375186110826 468.0135790385946 760.071625446558 471.0979397470805Q759.7791429655808 474.18230045556635 758.5560344087675 476.60192825274055Q757.3595151684066 479.0215560499148 755.950281396426 480.7232723028725Q754.5410476244454 482.39839923937774 753.3445283840845 483.80763301135835Q752.1214198272712 485.19027746688647 751.7491693969366 487.2642441501787L751.7491693969366 487.2642441501787Q750.2601676755987 495.29421771882284 745.3943227647977 496.4109690098264ZM762.0392348640403 418.078842740867L762.0392348640403 418.078842740867Q758.2901412442428 428.18278299280337 761.0820194717516 434.1653791946078L761.0820194717516 434.1653791946078Q762.9698609398765 437.5422223840707 765.9478643825526 437.728347599238L765.9478643825526 437.728347599238Q771.3720849388552 438.2867232447398 772.4090682805013 436.8774894727591Q773.4194623056949 435.46825570077857 774.8286960776755 433.8728967136307Q776.2379298496561 432.3041270429353 775.8656794193216 429.0336411192822Q775.4934289889871 425.76315519562917 775.3073037738199 423.2371701326451Q775.1211785586527 420.711185069661 773.5258195715048 417.5204670953653Q771.930460584357 414.356338437522 771.3720849388552 410.71360208353445Q770.8137092933534 407.0442764130944 770.6275840781861 403.6940225400839L770.6275840781861 403.6940225400839Q769.8830832175172 396.2224246169415 767.2507408887233 396.2224246169415L767.2507408887233 396.2224246169415Q765.3894887370508 396.2224246169415 764.9374703573588 398.16344471797134Q764.4588626612145 400.1310541354537 764.2727374460472 403.3217721097494L764.2727374460472 403.3217721097494Q764.0866122308801 413.0268726148988 762.0392348640403 418.078842740867ZM878.6865661410004 414.356338437522Q874.9374725212031 422.0140615758317 873.5548280656749 425.5770299804619Q872.1455942936943 429.1134090686396 872.1455942936943 430.8948932709547Q872.1455942936943 432.67637747326984 873.3687028505076 435.76073818175564Q874.5652220908685 438.8450988902415 876.4530635589934 442.6739604593963Q878.3143157106659 446.5028220285512 880.6541755584827 451.1825417241849Q882.9940354062996 455.86226141981854 884.6691623428048 459.87724820414064Q886.34428927931 463.8922349884627 887.0090221906216 466.0459696211123Q887.6737551019332 468.1997042537619 888.0460055322678 470.24708162060165L888.0460055322678 470.24708162060165Q888.4182559626023 473.8100500252319 887.7535230512907 478.2770551892458Q887.0887901399791 482.7706496697122 887.3812726209562 485.4827599478636Q887.6737551019332 488.1948702260149 887.5673978361235 490.42837280802195Q887.4876298867661 492.6884647064814 886.7165397096446 494.07110916200946Q885.9720388489757 495.48034293399013 882.329302494988 495.7728254149672Q878.6865661410004 496.03871857949184 875.6022054325147 493.2468403519831Q872.5178447240287 490.42837280802195 870.3641100913792 486.5995112388671Q868.2103754587296 482.7706496697122 866.8277310032015 479.0215560499148Q865.4184972312208 475.29905174656983 863.1584053327614 472.85283463294314Q860.9249027507543 470.4332068357689 859.3295437636066 465.7534871401352Q857.7607740929111 461.0737674445015 856.6174334854552 456.7928874956548Q855.5006821944517 452.4854182303556 854.197805688281 449.2947002560599Q852.8949291821102 446.13057159821665 850.5550693342934 445.7583211678822Q848.2152094864766 445.38607073754764 847.550476575165 446.87507245888565Q846.9123329803058 448.36407418022367 846.9921009296631 450.89005924320776Q847.0984581954731 453.41604430619185 847.4707086258076 456.5004050146777Q847.842959056142 459.5847657231635 847.9227270054994 463.2275020771511Q848.0290842713093 466.8702384311387 847.550476575165 470.0609564054344Q847.0984581954731 473.2250850632776 844.572473132489 476.1233205565962Q842.0464880695049 479.0215560499148 841.195629943026 482.02614880904326Q840.3713611329996 485.00415225171923 839.8129854874978 487.8226197956804Q839.2280205255436 490.6144980231891 838.2973944497074 492.6884647064814Q837.3667683738712 494.73584207332107 835.1332657918642 494.73584207332107L835.1332657918642 494.73584207332107Q830.6396713113977 494.92196728848836 826.8905776916004 489.6838719473529Q823.1680733882554 484.4457766062175 822.6096977427535 476.04355260723884L822.6096977427535 476.04355260723884Q822.0513220972518 471.1777076964379 819.7912301987924 469.6887059750999L819.7912301987924 469.6887059750999Q817.7438528319526 468.38582946892916 818.4883536926217 459.3986405079963L818.4883536926217 459.3986405079963Q818.6744789077889 456.979012710822 819.2328545532906 455.0911712426971L819.2328545532906 455.0911712426971Q820.3496058442942 449.2947002560599 819.1530866039333 438.5526164092644Q817.9299780471199 427.8105325624689 817.5577276167854 425.8429231449865Q817.1854771864508 423.8753137275042 816.7068694903065 421.16320344935286Q816.2548511106146 418.45109317120153 815.9623686296375 415.3667324627157Q815.6964754651129 412.2823717542298 815.6964754651129 409.0118858305767Q815.6964754651129 405.7413999069237 816.5207442751394 402.09866355293605Q817.3716024016181 398.4559271989485 817.4513703509756 396.0362994017743Q817.5577276167854 393.5900822881475 817.3716024016181 391.72883013647504L817.3716024016181 391.72883013647504Q816.4409763257819 385.7462339346706 816.7068694903065 382.10349758068304Q816.9993519712837 378.46076122669547 816.4409763257819 374.33941717656353Q815.8826006802801 370.2180731264316 815.6964754651129 366.3094436079193Q815.5103502499456 362.3742247729547 816.334619059972 359.1037388493016Q817.1854771864508 355.8332529256485 819.711462249435 354.34425120431047Q822.2374473124191 352.82866016652 824.0986994640916 353.12114264749715Q825.9599516157641 353.38703581202174 828.0339182990563 353.972000773976L828.0339182990563 353.972000773976Q834.2026397160279 355.6471277104812 836.6222675132021 355.2748772801467L836.6222675132021 355.2748772801467Q850.8209624988181 351.71190887551654 848.0290842713093 373.4087911007273L848.0290842713093 373.4087911007273Q847.4707086258076 376.94517018890497 846.9123329803058 379.7636377328662L846.9123329803058 379.7636377328662Q845.6094564741351 386.4907347953396 846.1678321196368 389.86757798480255L846.1678321196368 389.86757798480255Q846.5400825499713 392.10108056680957 846.6198504993287 394.70683357915107Q846.7262077651385 397.339175907945 846.9123329803058 399.572678489952L846.9123329803058 399.572678489952Q847.2845834106403 404.81077383108743 849.33196077748 404.81077383108743L849.33196077748 404.81077383108743Q852.5226787517757 404.81077383108743 857.3885236625766 393.96233271848206L857.3885236625766 393.96233271848206Q858.5052749535802 391.5427049213078 858.957293333272 390.05370319996985Q859.4359010294164 388.53811216217935 860.2601698394427 386.4907347953396Q861.1110279659216 384.4433574284999 862.2277792569251 382.3693907452077L862.2277792569251 382.3693907452077Q865.2323720160535 377.3174206192395 868.582625889064 376.0145441130687L868.582625889064 376.0145441130687Q866.1629980918899 370.77644877193336 867.7583570790376 366.9475872027785Q869.3537160661855 363.1187256336236 870.2843421420217 361.25747348195114Q871.214968217858 359.36963201382616 872.3317195088615 358.25288072282274L872.3317195088615 358.25288072282274Q874.3790968757012 356.20550335598296 878.4206729764758 357.3222546469865Q882.4356597607979 358.43900593799 885.4136632034739 357.50837986215373Q888.4182559626023 356.5777537863175 891.3164914559209 355.54077044467135Q894.2147269492395 354.53037641947776 897.0066051767482 354.05176872333334Q899.8250727207094 353.57316102718903 901.7660928217392 355.2748772801467Q903.7337022392217 356.95000421665196 904.212309935366 359.1037388493016Q904.6643283150579 361.25747348195114 904.1059526695561 363.6771012791254L904.1059526695561 363.6771012791254Q902.9892013785526 368.7290714050936 898.4956068980862 373.5949163158945L898.4956068980862 373.5949163158945Q895.8898538857447 383.8849817829981 889.9072576839403 389.86757798480255L889.9072576839403 389.86757798480255Q889.1627568232714 398.6420524141157 884.2969119124704 404.62464861592014L884.2969119124704 404.62464861592014Q882.4356597607979 406.6720259827599 878.6865661410004 414.356338437522ZM906.1799193528484 459.0263900776618L906.1799193528484 459.0263900776618L905.9937941376811 449.5074147876796Q905.9937941376811 446.87507245888565 906.1799193528484 444.6415698768787L906.1799193528484 444.6415698768787Q906.3660445680156 442.19535276325195 905.8076689225138 438.65897367507426L905.8076689225138 438.65897367507426Q904.8504535302252 432.49025225810254 904.9568107960349 429.592016764784Q905.0365787453924 426.6937812714654 904.9568107960349 424.91229706915027Q904.8504535302252 423.1308128668352 904.4782030998906 421.64181114549723L904.4782030998906 421.64181114549723Q903.919827454389 419.3817192470378 901.7660928217392 414.54246365268926Q899.6389475055421 409.6766187418883 899.6389475055421 404.0662729704184Q899.6389475055421 398.4559271989485 902.0585753027165 395.07908400948554L902.0585753027165 395.07908400948554Q904.2920778847233 391.72883013647504 903.7337022392217 388.16586173184487Q903.1753265937199 384.62948264366713 902.9094334291952 380.6144958593451Q902.6169509482181 376.5729197585705 902.8030761633854 372.37180775908115Q902.9892013785526 368.1706957595918 904.6643283150579 364.23547692462716L904.6643283150579 364.23547692462716Q908.7856723651898 354.71650163464494 921.1231151991332 355.0887520649795L921.1231151991332 355.0887520649795Q928.7808383374429 355.2748772801467 934.3911841089127 356.5777537863175Q940.0015298803827 357.8806302924882 942.6338722091766 357.69450507732097Q945.2396252215182 357.50837986215373 950.6638457778208 355.8332529256485L950.6638457778208 355.8332529256485Q958.5076941312977 352.82866016652 963.1874138269314 356.20550335598296L963.1874138269314 356.20550335598296Q964.4902903331022 357.1361294318192 965.7133988899155 357.61473712796356Q966.9365074467289 358.06675550765544 967.8671335225652 358.9973815834917L967.8671335225652 358.9973815834917Q971.0578514968608 362.5603499881219 969.7283856742376 374.52554239173077L969.7283856742376 374.52554239173077Q969.356135243903 378.088510796361 968.9838848135686 381.6248898845387L968.9838848135686 381.6248898845387Q968.0532587377324 390.05370319996985 968.9838848135686 394.1484579336493Q969.9145108894049 398.26980198378124 970.0208681552147 401.3541626922671Q970.1006361045721 404.4385234007529 969.7283856742376 406.85815119792716L969.7283856742376 406.85815119792716Q968.6116343832341 412.2823717542298 965.4475057253908 412.2823717542298L965.4475057253908 412.2823717542298Q962.6290381814297 412.0962465390626 961.4059296246164 410.5274768683672Q960.2094103842554 408.9321178812193 959.4649095235864 406.964508463737Q958.693819346465 404.99689904625467 957.8695505364386 403.4015400591068Q957.0186924099597 401.83277038841146 954.226814182451 401.83277038841146L954.226814182451 401.83277038841146Q945.9841260821871 401.83277038841146 943.2720158040358 400.0512861860963Q940.5599055258845 398.26980198378124 938.5125281590447 397.9773195028041Q936.465150792205 397.71142633827947 934.57730932408 398.4559271989485L934.57730932408 398.4559271989485Q930.6686798055678 400.1310541354537 930.0039468942562 404.62464861592014Q929.3658032993972 409.1182430963866 929.1796780842299 412.4684969693971Q928.9669635526101 415.84534015886004 929.1796780842299 418.6372183863688L929.1796780842299 418.6372183863688Q929.5519285145642 425.1781902336749 931.6790738307614 426.0290483601538Q933.8328084634111 426.87990648663265 935.3483995012016 426.21517357532105Q936.8374012225395 425.5770299804619 938.3264029438774 424.6198145881732L938.3264029438774 424.6198145881732Q942.8199974243439 421.64181114549723 947.579485069335 421.7215790948546Q952.338972714326 421.82793636066447 954.6788325621429 425.5770299804619Q957.0186924099597 429.29953428380685 956.6464419796253 432.7561454226272Q956.2741915492907 436.2127565614475 955.9817090683136 439.5895997509105Q955.715815903789 442.939853623921 955.1574402582872 445.9444463830494L955.1574402582872 445.9444463830494Q952.5250979294933 457.5373883563238 944.3089991456818 450.4380408635158L944.3089991456818 450.4380408635158Q933.6466832482438 449.6935400028469 931.0409302359024 453.0437938758574L931.0409302359024 453.0437938758574Q930.4825545904006 453.9744199516936 929.9241789448988 456.979012710822Q929.3658032993972 459.95701615349805 929.7380537297315 463.333859342961L929.7380537297315 463.333859342961Q930.6686798055678 472.10833377227414 938.1402777287103 472.66670941777585L938.1402777287103 472.66670941777585Q943.0061226395112 473.0389598481104 947.0211094238332 471.36383291160513Q951.0360962081553 469.6887059750999 952.338972714326 467.64132860826015L952.338972714326 467.64132860826015Q953.4823133217819 465.3812367098007 955.1574402582872 465.11534354527606Q956.8325671947925 464.82286106429893 958.1354437009632 464.5569678997743Q959.4649095235864 464.2644854187972 960.7677860297572 464.2644854187972Q962.070662535928 464.2644854187972 963.3735390420986 464.6367358491317L963.3735390420986 464.6367358491317Q966.7503822315616 465.7534871401352 967.3885258264208 469.8748311902671Q968.0532587377324 473.99617524039905 966.5642570163943 477.34642911340956Q965.0752552950564 480.7232723028725 964.5966475989121 483.4353825810238Q964.1180399027676 486.1474928591752 963.7457894724332 487.4503693653459Q963.3735390420986 488.75324587151664 961.5920548397835 490.720855288999Q959.837159953921 492.6884647064814 958.8001766122748 493.9913412126521Q957.7631932706288 495.29421771882284 955.5296906886217 493.43296556715035L955.5296906886217 493.43296556715035Q951.4083466384898 490.24224759285465 945.6118756518526 497.1820591869478L945.6118756518526 497.1820591869478Q944.1228739305147 499.22943655378754 942.4477469940094 500.1600626296238Q940.7460307410518 501.09068870546 937.209651652874 500.9045634902928L937.209651652874 500.9045634902928Q933.6466832482438 500.7184382751255 931.599305881404 499.0433113386203Q929.5519285145642 497.36818440211505 927.8502122616067 495.6664681491573L927.8502122616067 495.6664681491573Q925.0583340340979 492.1300890609796 918.1451117564573 493.0607151368159L918.1451117564573 493.0607151368159Q914.0237677063253 493.61909078231764 911.4180146939838 489.4977467321857L911.4180146939838 489.4977467321857Q910.8330497320296 488.93937108668393 910.567156567505 487.4503693653459Q910.2746740865277 485.9613676440079 909.9024236561934 484.073526175883L909.9024236561934 484.073526175883Q908.5995471500225 479.20768126508204 907.5625638083765 477.8250368095539Q906.5521697831829 476.4158030375733 906.4458125173729 474.18230045556635Q906.3660445680156 471.9222085571069 905.9937941376811 469.3962234941228Q905.6215437073465 466.8702384311387 905.4354184921793 465.67371919077783Q905.249293277012 464.45061063396446 905.701311656704 462.7754836974592Q906.1799193528484 461.0737674445015 906.1799193528484 459.0263900776618ZM1083.7699639388563 362.1880995577874L1083.7699639388563 362.1880995577874Q1089.1941844951589 362.5603499881219 1093.501653760458 367.79844532925733L1093.501653760458 367.79844532925733Q1094.246154621127 368.9151966202608 1094.9906554817962 369.95217996190695Q1095.7351563424652 370.96257398710054 1096.1074067727995 372.29203980972375L1096.1074067727995 372.29203980972375Q1097.2507473802557 375.0839180372325 1096.878496949921 380.32201337836796Q1096.4796572031341 385.5601087195034 1097.4368725954228 388.8305946431565Q1098.367498671259 392.10108056680957 1099.2981247470952 395.07908400948554L1099.2981247470952 395.07908400948554Q1100.9732516836007 400.31717935062096 1097.2507473802557 409.1182430963866L1097.2507473802557 409.1182430963866Q1094.4322798362944 417.14821666503076 1090.3109357861624 418.6372183863688L1090.3109357861624 418.6372183863688L1086.960681913152 419.78055899382474Q1082.0948370023511 421.45568593032993 1078.6382258635308 420.9770782341856Q1075.1816147247105 420.5250598544937 1073.8787382185396 419.00946881670325L1073.8787382185396 419.00946881670325Q1070.1296445987423 414.1702132223548 1071.9908967504148 407.8153665902159L1071.9908967504148 407.8153665902159Q1072.3631471807491 406.4859007675927 1071.9908967504148 403.6940225400839Q1071.6186463200802 400.87555499612273 1068.8267680925715 400.1310541354537L1068.8267680925715 400.1310541354537Q1067.3377663712336 399.75880370511925 1066.859158675089 398.82817762928295Q1066.3805509789447 397.8975515534467 1066.11465781442 397.2328186421351Q1065.822175333443 396.594675047276 1065.5562821689184 396.30219256629886Q1065.2637996879412 396.0362994017743 1063.7747979666033 397.15305069277775Q1062.2857962452651 398.26980198378124 1062.099671030098 398.34956993313864Q1061.9135458149308 398.4559271989485 1060.8765624732846 398.083676768614Q1059.8395791316386 397.71142633827947 1058.9089530558022 398.26980198378124Q1057.978326979966 398.82817762928295 1057.04770090413 400.31717935062096L1057.04770090413 400.31717935062096Q1053.670857714667 406.11365033725815 1055.744824397959 419.1955940318705L1055.744824397959 419.1955940318705Q1056.489325258628 423.1308128668352 1057.2338261192972 426.5076560562981L1057.2338261192972 426.5076560562981Q1058.722827840635 434.9098800552768 1058.6430598912775 437.728347599238Q1058.5367026254678 440.52022582674675 1057.4997192838216 443.6045865352326Q1056.489325258628 446.6889472437184 1055.744824397959 449.6935400028469L1055.744824397959 449.6935400028469Q1053.4847324994996 457.35126314115655 1056.3032000434607 462.7754836974592L1056.3032000434607 462.7754836974592Q1059.6534539164713 469.50258075993264 1060.5840799923076 470.6193320509361L1060.5840799923076 470.6193320509361Q1062.2857962452651 472.2944589874414 1064.7054240424395 472.02856582291673Q1067.1516411560663 471.7360833419396 1068.4545176622369 469.58234870929005Q1069.7573941684077 467.4552033930929 1070.874145459411 464.9292183301088Q1071.9908967504148 462.40323326712473 1073.320362573038 460.1431413686653Q1074.6232390792086 457.90963878665826 1076.4047232815237 457.5373883563238Q1078.1596181673863 457.1651379259893 1080.9780857113476 457.43103109051395Q1083.7699639388563 457.723513571491 1084.8069472805023 457.723513571491Q1085.8439306221485 457.723513571491 1087.3329323434864 458.9466221283044Q1088.8219340648243 460.1431413686653 1088.9282913306342 464.37084268460706Q1089.0080592799918 468.5719546840964 1089.1941844951589 471.0979397470805Q1089.3803097103262 473.6239248100646 1087.8913079889883 475.56494491109447Q1086.4023062676501 477.5325543285768 1085.923698571506 479.1279133157247Q1085.471680191814 480.7232723028725 1085.2855549766468 482.2122740242105L1085.2855549766468 482.2122740242105Q1085.0994297614795 486.1474928591752 1083.876321204666 488.0087450108477Q1082.6532126478528 489.8699971625202 1081.6162293062066 491.09310571933355Q1080.605835281013 492.31621427614687 1076.2185980663564 492.31621427614687Q1071.8047715352475 492.31621427614687 1068.2683924470696 496.4109690098264Q1064.7054240424395 500.5323130599583 1061.5412953845962 500.0537053638139Q1058.3505774103005 499.60168698412207 1057.04770090413 496.2248437946591L1057.04770090413 496.2248437946591Q1055.744824397959 493.2468403519831 1051.2512299174928 493.0607151368159L1051.2512299174928 493.0607151368159Q1049.948353411322 492.8745899216486 1048.8316021203184 492.39598222550427Q1047.6882615128625 491.94396384581233 1046.1992597915244 491.65148136483526Q1044.7102580701865 491.3855882003106 1043.2212563488483 490.42837280802195L1043.2212563488483 490.42837280802195Q1039.472162729051 488.38099544118216 1037.0525349318768 483.88740096071575L1037.0525349318768 483.88740096071575Q1035.5369438940863 481.095522733207 1034.1542994385582 479.20768126508204Q1032.7450656665776 477.34642911340956 1031.8144395907414 475.6713021769043L1031.8144395907414 475.6713021769043Q1029.3682224771146 471.9222085571069 1029.9265981226165 468.5719546840964L1029.9265981226165 468.5719546840964Q1031.0699387300724 459.5847657231635 1027.5069703254421 456.7928874956548L1027.5069703254421 456.7928874956548Q1025.4595929586023 455.49001098948406 1025.4595929586023 454.71892081236257Q1025.4595929586023 453.9744199516936 1024.688502781481 451.55479215451936L1024.688502781481 451.55479215451936Q1023.5717514904775 448.1779489650564 1024.794860047291 443.71094380104245Q1026.0179686041042 439.217349320576 1025.6457181737696 436.3191138272574Q1025.273467743435 433.4208783339388 1024.688502781481 430.2301603596431L1024.688502781481 430.2301603596431Q1023.5717514904775 422.0140615758317 1024.5023775663137 419.3817192470378Q1025.4595929586023 416.7759662346963 1024.980985262458 411.91012132389534Q1024.5023775663137 407.0442764130944 1024.5023775663137 403.95991570460853Q1024.5023775663137 400.87555499612273 1024.0503591866218 395.850174186607Q1023.5717514904775 390.7982040606388 1023.9440019208121 385.0017330740016L1023.9440019208121 385.0017330740016Q1025.273467743435 370.4041983415988 1033.8618169575811 364.9799777852961L1033.8618169575811 364.9799777852961Q1046.7576354370262 357.3222546469865 1050.3206038416563 357.69450507732097L1050.3206038416563 357.69450507732097Q1051.4373551326598 357.69450507732097 1053.0327141198077 357.9869875582981Q1054.6014837905032 358.25288072282274 1056.1170748282937 357.8806302924882Q1057.6060765496316 357.50837986215373 1058.722827840635 356.7638790014847Q1059.8395791316386 356.0193781408157 1060.9829197390945 355.0887520649795L1060.9829197390945 355.0887520649795Q1065.4499249031085 350.96740801484754 1069.0128933077388 354.15812598914323L1069.0128933077388 354.15812598914323Q1072.3631471807491 358.06675550765544 1074.250988648874 359.36963201382616L1074.250988648874 359.36963201382616Q1077.4151173067173 361.8158491274529 1083.7699639388563 362.1880995577874ZM1123.9730104149821 365.1661030004634L1123.9730104149821 365.1661030004634Q1126.0203877818217 363.3048508487909 1127.5359788196122 361.1511162161413Q1129.0249805409503 358.9973815834917 1131.4446083381245 357.1361294318192L1131.4446083381245 357.1361294318192Q1137.9855801854305 351.71190887551654 1144.5531413491892 353.972000773976L1144.5531413491892 353.972000773976Q1152.5831149178334 356.95000421665196 1159.3102119803068 357.69450507732097Q1166.0373090427802 358.43900593799 1169.1216697512662 361.0713482667839Q1172.2060304597521 363.6771012791254 1174.4661223582116 366.68169403825385L1174.4661223582116 366.68169403825385Q1179.8637535980615 373.78104153106176 1181.0070942055177 382.18326553004044L1181.0070942055177 382.18326553004044Q1181.1932194206847 385.37398350433614 1182.123845496521 386.67686001050686L1182.123845496521 386.67686001050686Q1184.5434732936951 390.7982040606388 1183.7192044836688 397.71142633827947Q1182.8683463571901 404.62464861592014 1183.1342395217148 407.3367588940715Q1183.4267220026918 410.04886917222285 1184.0914549140034 411.35174567839357Q1184.7295985088626 412.65462218456435 1185.2879741543643 413.98408800718755L1185.2879741543643 413.98408800718755Q1186.8035651921548 417.5204670953653 1186.8035651921548 421.08343549999546L1186.8035651921548 421.08343549999546Q1186.8035651921548 425.5770299804619 1183.7989724330264 430.04403514447586L1183.7989724330264 430.04403514447586Q1182.4960959268556 431.7457513974336 1182.8683463571901 436.58500699178205Q1183.2405967875247 441.450851902583 1183.4267220026918 446.3166968133839L1183.4267220026918 446.3166968133839Q1183.612847217859 458.46801443216003 1182.123845496521 461.3662499254786Q1180.634843775183 464.2644854187972 1179.9701108638715 464.82286106429893Q1179.3053779525599 465.3812367098007 1178.7470023070582 465.7534871401352L1178.7470023070582 465.7534871401352Q1175.9551240795495 467.05636364630595 1173.8013894468997 473.51756754425475Q1171.6476548142502 479.9787714422035 1168.08468640962 483.9937582265256Q1164.5483073214423 488.0087450108477 1160.7194457522874 490.5347300738318Q1156.8905841831327 493.0607151368159 1154.736849550483 494.4699489087964Q1152.5831149178334 495.8525933643246 1151.6524888419972 497.1820591869478Q1150.721862766161 498.48493569311853 1149.7646473738723 499.78781219928925L1149.7646473738723 499.78781219928925Q1147.345019576698 502.7658156419653 1143.5959259569006 502.7658156419653L1143.5959259569006 502.7658156419653Q1137.2410793247616 502.7658156419653 1134.2630758820856 499.78781219928925L1134.2630758820856 499.78781219928925Q1132.960199375915 498.11268526278405 1131.4446083381245 494.92196728848836L1131.4446083381245 494.92196728848836Q1128.6527301106157 489.8699971625202 1123.9730104149821 486.70586850467697L1123.9730104149821 486.70586850467697Q1118.7349150738464 483.14290010004675 1117.618163782843 476.04355260723884L1117.618163782843 476.04355260723884Q1117.0597881373415 473.6239248100646 1117.3256813018659 471.1777076964379Q1117.618163782843 468.75807989926363 1117.0597881373415 465.0089862794662L1117.0597881373415 465.0089862794662Q1116.6875377070069 461.25989265966876 1115.5707864160033 458.2818892169928Q1114.4274458085474 455.27729645786434 1114.2413205933801 452.67154344552284L1114.2413205933801 452.67154344552284Q1113.3106945175439 444.82769509204593 1109.0298145686972 444.2693194465442L1109.0298145686972 444.2693194465442Q1105.8390965944016 443.8970690162097 1105.2807209488997 434.72375484010956L1105.2807209488997 434.72375484010956Q1105.0945957337326 430.04403514447586 1105.6529713792343 425.8429231449865Q1106.211347024736 421.64181114549723 1107.1419731005722 418.6372183863688L1107.1419731005722 418.6372183863688Q1108.6575641383627 413.21299783006606 1108.0725991764084 406.03388238790075Q1107.5142235309067 398.82817762928295 1108.0725991764084 393.21783185781305L1108.0725991764084 393.21783185781305Q1109.0298145686972 382.7416411755422 1112.566193656875 376.200669328236L1112.566193656875 376.200669328236Q1114.2413205933801 373.4087911007273 1117.5118065170332 370.59032355676607Q1120.8088817571388 367.79844532925733 1123.9730104149821 365.1661030004634ZM1135.8584348692334 418.6372183863688Q1136.3104532489256 421.2695607151627 1137.719687020906 422.86491970231054Q1139.1289207928867 424.43368937300596 1139.767064387746 427.8105325624689Q1140.4317972990573 431.16078643547934 1140.24567208389 435.20236253625393Q1140.059546868723 439.217349320576 1140.059546868723 442.86008567456355Q1140.059546868723 446.5028220285512 1140.4317972990573 449.40105752186975Q1140.8040477293919 452.2992930151883 1141.5485485900608 454.71892081236257L1141.5485485900608 454.71892081236257Q1143.5959259569006 460.51539179899976 1147.345019576698 460.51539179899976L1147.345019576698 460.51539179899976Q1153.1414905633353 460.51539179899976 1155.3749931453422 438.1005980295725L1155.3749931453422 438.1005980295725Q1156.119494006011 431.93187661260083 1156.119494006011 422.27995474035635Q1156.119494006011 412.65462218456435 1153.1414905633353 405.66163195756627Q1150.1368978042067 398.6420524141157 1145.85601785536 398.6420524141157L1145.85601785536 398.6420524141157Q1141.734673805228 398.6420524141157 1138.3578306157651 407.8153665902159L1138.3578306157651 407.8153665902159Q1135.379827173089 416.0314653740273 1135.8584348692334 418.6372183863688ZM1286.0614835092035 492.8745899216486L1286.0614835092035 492.8745899216486Q1279.8927620922316 492.8745899216486 1280.4511377377335 482.39839923937774L1280.4511377377335 482.39839923937774Q1280.8233881680678 475.29905174656983 1280.5574950035432 469.8748311902671Q1280.2650125225662 464.45061063396446 1278.2176351557266 458.46801443216003L1278.2176351557266 458.46801443216003Q1276.1702577888866 452.4854182303556 1275.3991676117653 447.61957331955466Q1274.6546667510963 442.7537284087537 1276.5425082192212 436.9572574221165L1276.5425082192212 436.9572574221165Q1279.1482612315626 428.74115863830514 1276.9147586495558 418.6372183863688L1276.9147586495558 418.6372183863688Q1276.5425082192212 416.9620914498635 1276.5425082192212 415.18060724754844Q1276.5425082192212 413.39912304523335 1276.356383004054 411.91012132389534L1276.356383004054 411.91012132389534Q1276.1702577888866 408.3737422357176 1274.468541535929 408.3737422357176L1274.468541535929 408.3737422357176Q1272.979539814591 408.3737422357176 1272.4211641690893 410.9794952480591L1272.4211641690893 410.9794952480591Q1271.304412878086 417.70659231053247 1269.7888218402952 421.45568593032993L1269.7888218402952 421.45568593032993Q1265.6940671066159 431.16078643547934 1266.6246931824521 437.5422223840707L1266.6246931824521 437.5422223840707Q1269.0443209796263 446.87507245888565 1266.2524427521178 451.92704258485384L1266.2524427521178 451.92704258485384Q1264.949566245947 454.3466703820281 1263.0617247778218 455.49001098948406Q1261.2004726261493 456.60676228048754 1260.6420969806477 457.43103109051395Q1260.083721335146 458.2818892169928 1260.1634892845034 460.43562384964235Q1260.269846550313 462.58935848229197 1259.1530952593098 463.8922349884627Q1258.0097546518537 465.19511149463347 1257.743861487329 466.6841132159714Q1257.451379006352 468.1997042537619 1257.0791285760174 469.50258075993264L1257.0791285760174 469.50258075993264Q1256.1485025001812 472.85283463294314 1252.9843738423378 472.48058420260867Q1249.7936558680424 472.10833377227414 1248.570547311229 468.5719546840964Q1247.374028070868 465.0089862794662 1246.7092951595564 460.3292665838325Q1246.0445622482448 455.6761362046513 1245.4064186533858 450.9964165090176Q1244.741685742074 446.3166968133839 1242.960201539759 443.8970690162097Q1241.2053066538965 441.450851902583 1240.540573742585 439.03122410540874Q1239.8758408312733 436.58500699178205 1239.5035904009387 433.97925397944056L1239.5035904009387 433.97925397944056Q1238.5729643251025 427.62440734730166 1237.0839626037646 425.1781902336749L1237.0839626037646 425.1781902336749Q1235.7810860975937 422.94468765166795 1235.0365852369246 416.7759662346963Q1234.2920843762558 410.60724481772456 1233.627351464944 408.3737422357176Q1232.9626185536326 406.11365033725815 1231.2874916171272 406.11365033725815L1231.2874916171272 406.11365033725815Q1229.4262394654547 406.2997755524254 1229.2401142502874 408.9321178812193Q1229.0539890351201 411.53787089356086 1229.7984898957893 413.21299783006606L1229.7984898957893 413.21299783006606Q1230.5429907564583 414.9147140830238 1229.9846151109564 419.1955940318705Q1229.4262394654547 423.5030632971697 1230.170740326124 426.6937812714654Q1230.9152411867929 429.8579099293086 1231.6597420474618 432.3838949922927Q1232.4042429081308 434.9098800552768 1232.9626185536326 437.728347599238L1232.9626185536326 437.728347599238Q1234.8504600217575 445.38607073754764 1233.8134766801113 450.70393402804046Q1232.7764933384651 456.0483866349858 1232.590368123298 458.9466221283044Q1232.4042429081308 461.84485762162296 1230.250508275481 463.14773412779374Q1228.0967736428315 464.45061063396446 1227.6447552631396 465.85984440594507Q1227.1661475669953 467.2424888614732 1226.9800223518282 469.0239730637883Q1226.7938971366607 470.80545726610336 1226.6077719214936 472.77306668358574Q1226.421646706326 474.74067610106806 1225.3048954153228 477.5325543285768L1225.3048954153228 477.5325543285768Q1222.8852676181486 483.5151505303813 1223.709536428175 486.33361807434244Q1224.5603945546538 489.1254963018512 1222.7789103523387 492.31621427614687Q1220.9974261500238 495.48034293399013 1217.7269402263705 495.7728254149672Q1214.4564543027172 496.03871857949184 1212.4888448852353 494.5497168581539Q1210.5478247842052 493.0607151368159 1209.032233746415 490.8006232383564L1209.032233746415 490.8006232383564Q1202.863512329443 480.7232723028725 1204.1663888356138 468.0135790385946L1204.1663888356138 468.0135790385946Q1204.3791033672337 465.19511149463347 1204.6449965317584 462.40323326712473Q1204.9374790127354 459.5847657231635 1204.5652285824008 455.49001098948406L1204.5652285824008 455.49001098948406Q1203.9802636204465 445.38607073754764 1199.8855088867672 439.5895997509105L1199.8855088867672 439.5895997509105Q1197.067041342806 435.6543809159458 1196.6947909124715 430.04403514447586L1196.6947909124715 430.04403514447586Q1195.7641648366352 420.33893463932645 1197.8115422034748 416.2175905891945L1197.8115422034748 416.2175905891945Q1198.7687575957636 414.356338437522 1198.7687575957636 410.3147623367475Q1198.7687575957636 406.2997755524254 1198.662400329954 404.5448806665628Q1198.5826323805964 402.76339646424765 1198.848525545121 401.9125383377688Q1199.141008026098 401.06168021128997 1199.2207759754556 398.93453489509284Q1199.3271332412653 396.7808002624432 1199.3271332412653 393.96233271848206L1199.3271332412653 393.96233271848206Q1199.141008026098 388.9103625925139 1197.997667418642 384.70925059302454Q1196.8809161276386 380.5081385935352 1196.615022963114 377.4237778850494Q1196.322540482137 374.33941717656353 1196.6947909124715 371.3348244174351L1196.6947909124715 371.3348244174351Q1197.2531665579731 364.60772735496164 1199.0346507602883 361.8158491274529Q1200.8161349626034 358.9973815834917 1202.3051366839413 358.5453632037998Q1203.7941384052792 358.06675550765544 1205.6819798734043 358.06675550765544Q1207.5432320250768 358.06675550765544 1208.8461085312474 357.4286119127963Q1210.1489850374182 356.7638790014847 1211.6645760752087 356.20550335598296L1211.6645760752087 356.20550335598296Q1214.8287047330518 354.90262684981224 1217.8332974921805 356.0193781408157Q1220.8113009348563 357.1361294318192 1222.965035567506 356.7638790014847Q1225.1187702001557 356.39162857115025 1226.9800223518282 355.8332529256485L1226.9800223518282 355.8332529256485Q1231.845867262629 353.972000773976 1234.371852325613 354.90262684981224Q1236.8978373885973 355.8332529256485 1238.945214755437 358.06675550765544Q1241.019181438729 360.3268474061149 1241.2850746032536 361.7094918616431Q1241.5775570842309 363.1187256336236 1242.1359327297328 363.6771012791254Q1242.6943083752344 364.23547692462716 1243.4388092359034 364.79385257012893L1243.4388092359034 364.79385257012893Q1244.9278109572415 366.12331839275214 1244.9278109572415 368.9151966202608L1244.9278109572415 368.9151966202608Q1244.9278109572415 373.03654067039275 1247.187902855701 379.9497629480334L1247.187902855701 379.9497629480334Q1251.096532374213 393.0317066426458 1254.6595007788433 394.1484579336493L1254.6595007788433 394.1484579336493Q1255.4040016395122 394.33458314881653 1257.265253791185 393.0317066426458Q1259.1530952593098 391.72883013647504 1259.8975961199785 389.0964878076811L1259.8975961199785 389.0964878076811Q1261.0143474109823 384.62948264366713 1260.6420969806477 382.2896227958503Q1260.269846550313 379.9497629480334 1261.3068298919593 378.6468864418627Q1262.317223917153 377.3174206192395 1262.4235811829626 376.200669328236Q1262.5033491323202 375.0839180372325 1262.6894743474872 373.22266588556Q1262.8755995626548 371.3348244174351 1263.4339752081564 368.9151966202608L1263.4339752081564 368.9151966202608Q1264.949566245947 362.74647520328915 1267.7414444734557 359.55575722899346Q1270.5599120174168 356.39162857115025 1273.5379154600926 355.8332529256485Q1276.5425082192212 355.2748772801467 1279.626868927707 355.54077044467135Q1282.711229636193 355.8332529256485 1285.7955903446789 356.0991460901731Q1288.8799510531646 356.39162857115025 1292.044079711008 355.0887520649795L1292.044079711008 355.0887520649795Q1300.472893026439 351.33965844518207 1303.6370216842822 354.90262684981224L1303.6370216842822 354.90262684981224Q1304.5676477601185 355.8332529256485 1305.4185058865971 356.20550335598296Q1306.2693640130763 356.5777537863175 1307.013864873745 356.95000421665196L1307.013864873745 356.95000421665196Q1308.502866595083 358.06675550765544 1308.7687597596077 360.4066153554723Q1309.0612422405848 362.74647520328915 1309.4334926709193 363.597333329768Q1309.8057431012537 364.4216021397944 1310.1779935315883 365.1661030004634L1310.1779935315883 365.1661030004634Q1312.2519602148807 370.0319479112643 1312.8103358603823 381.99714031487315L1312.8103358603823 381.99714031487315Q1313.368711505884 401.64664517324417 1312.0658349997132 404.4385234007529L1312.0658349997132 404.4385234007529Q1313.368711505884 412.0962465390626 1310.73636917709 415.28696451335827L1310.73636917709 415.28696451335827Q1310.1779935315883 415.84534015886004 1309.6196178860866 416.40371580436175L1309.6196178860866 416.40371580436175Q1306.2693640130763 419.78055899382474 1305.4982738359547 425.3643154488422L1305.4982738359547 425.3643154488422Q1305.1260234056201 427.62440734730166 1305.6046311017644 429.1134090686396Q1306.0832387979087 430.6024107899776 1306.0832387979087 432.3041270429353L1306.0832387979087 432.3041270429353Q1306.0832387979087 433.97925397944056 1305.976881532099 435.2821304856113Q1305.8705242662893 436.58500699178205 1305.8705242662893 438.1005980295725L1305.8705242662893 438.1005980295725Q1305.4982738359547 443.52481858587515 1305.7907563169317 445.9444463830494Q1306.0832387979087 448.36407418022367 1305.7907563169317 449.5074147876796Q1305.4982738359547 450.6241660786831 1305.1260234056201 451.55479215451936L1305.1260234056201 451.55479215451936Q1304.1953973297839 454.3466703820281 1304.5676477601185 456.3142797995104Q1304.939898190453 458.2818892169928 1304.5676477601185 459.3986405079963Q1304.1953973297839 460.51539179899976 1303.6370216842822 461.6587324064557L1303.6370216842822 461.6587324064557Q1302.1480199629443 464.82286106429893 1302.413913127469 469.7684739244573Q1302.706395608446 474.74067610106806 1302.0416626971344 478.09092997407856Q1301.4035191022751 481.4677731635415 1301.4035191022751 485.00415225171923L1301.4035191022751 485.00415225171923Q1301.0312686719406 494.92196728848836 1298.771176773481 494.17746642781935L1298.771176773481 494.17746642781935Q1297.8405506976449 493.8052159974848 1297.2024071027856 495.1080925036556Q1296.5376741914743 496.4109690098264 1296.05906649533 498.48493569311853Q1295.607048115638 500.5323130599583 1293.5330814323459 499.8675801486467Q1291.4857040655058 499.22943655378754 1290.8209711541945 496.78321944016085Q1290.1828275593355 494.3635916429866 1289.1458442176893 493.61909078231764Q1288.1354501924955 492.8745899216486 1286.0614835092035 492.8745899216486ZM1341.9788160087355 496.9693446553281L1341.9788160087355 496.9693446553281Q1339.3464736799415 496.78321944016085 1336.63436340179 491.3855882003106Q1333.922253123639 485.9613676440079 1332.8852697819927 477.5325543285768Q1331.874875756799 469.13033032959817 1331.5026253264646 466.1257375704697Q1331.1303748961302 463.14773412779374 1330.7581244657956 461.6587324064557L1330.7581244657956 461.6587324064557Q1330.199748820294 458.8402648624945 1328.6043898331461 456.68653022984495Q1327.0090308459983 454.53279559719533 1326.6367804156637 453.41604430619185L1326.6367804156637 453.41604430619185Q1326.264529985329 451.7409173696866 1326.4506552004964 445.01382030721317L1326.4506552004964 445.01382030721317Q1326.822905630831 430.6024107899776 1325.1477786943258 425.9492804107964L1325.1477786943258 425.9492804107964Q1324.4032778336566 423.8753137275042 1324.589403048824 422.5724372213335Q1324.7755282639912 421.2695607151627 1324.6691709981812 419.78055899382474Q1324.589403048824 418.26496795603424 1323.632187656535 416.58984101952905Q1322.7015615806988 414.9147140830238 1321.7709355048626 412.65462218456435L1321.7709355048626 412.65462218456435Q1318.7929320621868 406.6720259827599 1318.7929320621868 404.4385234007529L1318.7929320621868 404.4385234007529Q1318.7929320621868 401.64664517324417 1320.6541842138593 398.083676768614L1320.6541842138593 398.083676768614Q1324.7755282639912 391.1704544909733 1325.4136718588504 388.45834421282194Q1326.078404770162 385.7462339346706 1325.972047504352 381.5451219351813Q1325.8922795549945 377.3174206192395 1325.8922795549945 373.03654067039275L1325.8922795549945 373.03654067039275Q1325.5200291246601 362.00197434262014 1327.753531706667 359.183506798659L1327.753531706667 359.183506798659Q1329.2425334280051 357.69450507732097 1331.3165001112973 357.1361294318192Q1333.363877478137 356.5777537863175 1336.5545954524327 355.461002495314L1336.5545954524327 355.461002495314Q1342.9094420845718 353.20091059685456 1346.1799280082248 353.20091059685456Q1349.4504139318778 353.20091059685456 1351.41802334936 354.9823947991696Q1353.3590434503901 356.7638790014847 1355.9913857791842 357.05636148246185Q1358.5971387915256 357.3222546469865 1359.6341221331716 357.05636148246185Q1360.6711054748178 356.7638790014847 1361.4156063354867 356.5777537863175L1361.4156063354867 356.5777537863175Q1363.6491089174935 355.6471277104812 1365.1381106388317 355.6471277104812L1365.1381106388317 355.6471277104812Q1367.5843277524584 355.6471277104812 1368.7010790434617 357.50837986215373Q1369.8178303344655 359.36963201382616 1370.7484564103015 360.59274057063953Q1371.679082486138 361.8158491274529 1373.8328171187875 361.25747348195114Q1375.986551751437 360.69909783644937 1377.1033030424405 360.69909783644937Q1378.2466436498964 360.69909783644937 1378.9911445105656 360.69909783644937L1378.9911445105656 360.69909783644937Q1381.7830227380744 361.0713482667839 1383.8569894213663 360.5129726212822L1383.8569894213663 360.5129726212822Q1387.9517441550458 359.183506798659 1390.2118360535053 361.8158491274529L1390.2118360535053 361.8158491274529Q1390.7702116990072 363.1187256336236 1392.817589065847 363.6771012791254Q1394.8649664326865 364.23547692462716 1396.380557470477 365.1661030004634L1396.380557470477 365.1661030004634Q1399.9169365586547 367.0539444685883 1401.2198130648255 371.73366416422203L1401.2198130648255 371.73366416422203Q1403.8521553936196 380.32201337836796 1401.990903241947 389.4687382380156L1401.990903241947 389.4687382380156Q1401.2198130648255 392.6594562123113 1400.7677946851338 394.5207083639838Q1400.2891869889893 396.40854983210875 1400.0232938244646 397.79119428763687Q1399.7308113434876 399.2004280596175 1399.65104339413 400.50330456578826Q1399.54468612832 401.83277038841146 1399.464918178963 403.6940225400839Q1399.358560913153 405.55527469175644 1399.358560913153 407.8153665902159L1399.358560913153 407.8153665902159L1399.358560913153 412.8407473997316Q1399.358560913153 418.6372183863688 1399.7308113434876 422.0140615758317L1399.7308113434876 422.0140615758317Q1400.847562634491 431.34691165064663 1391.3285873445088 435.46825570077857L1391.3285873445088 435.46825570077857Q1388.1378693702131 436.7711322069493 1386.8349928640425 437.91447281440526L1386.8349928640425 437.91447281440526Q1385.5321163578717 439.03122410540874 1384.6014902820355 441.2647266874157Q1383.6442748897468 443.52481858587515 1381.1448791432151 446.87507245888565Q1378.618894080231 450.25191564834864 1373.4605666884531 452.1929357493785Q1368.3288286131276 454.1605451668608 1364.5797349933298 455.49001098948406Q1360.857230689985 456.7928874956548 1359.9266046141486 458.65413964732727L1359.9266046141486 458.65413964732727Q1358.5971387915256 461.0737674445015 1359.2618717028372 470.14072435479176Q1359.9266046141486 479.20768126508204 1359.7138900825291 481.6538983787088Q1359.5277648673618 484.073526175883 1359.155514437027 485.66888516303084Q1358.7832640066927 487.2642441501787 1357.2942622853548 488.1948702260149L1357.2942622853548 488.1948702260149Q1355.8052605640166 489.1254963018512 1354.6885092730133 489.1254963018512Q1353.5451686655574 489.1254963018512 1352.3486494251963 490.24224759285465Q1351.125540868383 491.3855882003106 1350.1949147925468 492.5023394913141Q1349.2642887167106 493.61909078231764 1348.1475374257072 494.5497168581539L1348.1475374257072 494.5497168581539Q1345.5151950969132 496.9693446553281 1341.9788160087355 496.9693446553281ZM1354.6885092730133 392.2872057819768L1354.6885092730133 392.2872057819768Q1353.5451686655574 393.4039570729803 1352.4284173745539 398.82817762928295Q1351.3116660835503 404.25239818558566 1351.3116660835503 407.41652684342887Q1351.3116660835503 410.60724481772456 1352.614542589721 413.1332298807087Q1353.9440084123444 415.6592149436928 1353.8376511465342 417.25457393084065Q1353.7312938807247 418.823343601536 1353.4654007161998 420.6048278038511Q1353.1729182352228 422.3863120061662 1353.1729182352228 424.24756415783867L1353.1729182352228 424.24756415783867Q1352.8006678048885 428.74115863830514 1353.9440084123444 429.8579099293086Q1355.060759703348 430.9746612203121 1356.4434041588759 430.70876805578746Q1357.8526379308566 430.4162855748104 1359.3416396521945 429.6717847141414Q1360.857230689985 428.9272838534724 1362.053749930346 428.07642572699353Q1363.2768584871592 427.2521569169671 1364.4999670439727 426.87990648663265Q1365.6964862843336 426.5076560562981 1366.2814512462876 425.1781902336749Q1366.8398268917895 423.8753137275042 1367.956578182793 422.94468765166795L1367.956578182793 422.94468765166795Q1369.2594546889636 422.0140615758317 1369.738062385108 420.41870258868386Q1370.1900807648 418.823343601536 1370.6686884609442 417.06844871567336Q1371.1207068406359 415.28696451335827 1370.5623311951344 413.6916055262104Q1370.0039555496326 412.0962465390626 1368.5149538282947 408.9321178812193L1368.5149538282947 408.9321178812193Q1367.3982025372911 405.7413999069237 1367.7704529676255 403.8801477552512L1367.7704529676255 403.8801477552512Q1369.2594546889636 396.0362994017743 1365.9092008159532 393.0317066426458L1365.9092008159532 393.0317066426458Q1361.601731550654 390.4259536303043 1358.7034960573353 390.7982040606388Q1355.8052605640166 391.1704544909733 1354.6885092730133 392.2872057819768ZM1421.7999439990326 496.4109690098264L1421.7999439990326 496.4109690098264Q1419.9386918473604 496.9693446553281 1417.5988319995433 496.14507584530173Q1415.2589721517265 495.29421771882284 1414.32834607589 492.95435787100604Q1413.3711306836017 490.6144980231891 1413.1052375190768 487.5301373147033Q1412.8127550380998 484.4457766062175 1412.998880253267 480.9093975180397Q1413.1850054684344 477.34642911340956 1413.1850054684344 473.99617524039905L1413.1850054684344 473.99617524039905Q1413.1850054684344 466.49798800080424 1410.7653776712602 464.45061063396446L1410.7653776712602 464.45061063396446Q1405.713407545292 460.701517014167 1406.644033621128 445.38607073754764L1406.644033621128 445.38607073754764Q1407.5746596969645 436.58500699178205 1408.7180003044205 431.34691165064663L1408.7180003044205 431.34691165064663Q1410.579252456093 422.7585624365007 1410.472895190283 416.7759662346963Q1410.3931272409257 410.79337003289186 1410.87173493707 407.41652684342887Q1411.323753316762 404.0662729704184 1411.9884862280735 401.83277038841146Q1412.6266298229327 399.572678489952 1413.557255898769 397.15305069277775Q1414.5144712910576 394.70683357915107 1415.2589721517265 389.0964878076811L1415.2589721517265 389.0964878076811Q1417.120224303399 375.0839180372325 1418.609226024737 371.73366416422203L1418.609226024737 371.73366416422203Q1420.6831927080293 367.0539444685883 1423.5814282013478 362.08174229197755Q1426.4796636946664 357.1361294318192 1428.340915846339 355.461002495314L1428.340915846339 355.461002495314Q1432.6483851116382 352.2702845210183 1440.6783586802824 354.90262684981224L1440.6783586802824 354.90262684981224Q1446.6609548820868 356.95000421665196 1451.7926929574123 356.20550335598296Q1456.9510203491905 355.461002495314 1459.6631306273416 355.54077044467135Q1462.375240905493 355.6471277104812 1465.7254947785036 357.61473712796356Q1469.1023379679666 359.55575722899346 1470.963590119639 362.2678675071448Q1472.8248422713114 364.9799777852961 1473.595932448433 368.1706957595918L1473.595932448433 368.1706957595918Q1474.8988089546035 373.5949163158945 1473.7820576636002 381.9173723655158Q1472.638717056144 390.2398284151371 1472.931199537121 395.37156649046267Q1473.1970927016462 400.50330456578826 1475.1647021191282 405.1032563120645Q1477.1323115366106 409.6766187418883 1477.7970444479222 412.38872902003965Q1478.4351880427814 415.10083929819103 1478.9137957389257 417.81294957634236Q1479.3658141186177 420.5250598544937 1479.6582965995947 423.60942056297955Q1479.9507790805717 426.6937812714654 1480.775047890598 430.6024107899776Q1481.625906017077 434.5376296249423 1481.7056739664345 436.8774894727591Q1481.8120312322442 439.217349320576 1481.625906017077 440.706351041914Q1481.4397808019096 442.19535276325195 1481.1472983209328 443.4184613200653Q1480.8814051564082 444.6415698768787 1481.3334235361 447.1675549398628Q1481.8120312322442 449.6935400028469 1481.3334235361 452.67154344552284Q1480.8814051564082 455.6761362046513 1480.3230295109063 458.46801443216003L1480.3230295109063 458.46801443216003Q1478.2490628276141 467.05636364630595 1478.6213132579485 470.6193320509361L1478.6213132579485 470.6193320509361Q1479.3658141186177 476.9741786830751 1478.6213132579485 479.6862889612264Q1477.8768123972798 482.39839923937774 1477.2386688024205 484.073526175883Q1476.573935891109 485.7752424288407 1475.72307776463 488.75324587151664Q1474.8988089546035 491.75783863064515 1472.2664666258097 494.17746642781935Q1469.6607136134683 496.59709422499355 1467.3208537656512 495.6664681491573Q1464.9809939178344 494.73584207332107 1464.3162610065228 492.95435787100604Q1463.6781174116638 491.1728736686909 1463.1995097155193 489.3116215170184Q1462.7474913358276 487.4503693653459 1462.082758424516 485.9613676440079Q1461.4180255132044 484.4457766062175 1459.742898576699 484.2596513910502L1459.742898576699 484.2596513910502Q1456.7648951340232 483.88740096071575 1456.578769918856 480.8030402522299Q1456.3926447036886 477.71867954374403 1456.6585378682132 475.37881969592723Q1456.9510203491905 473.0389598481104 1456.3926447036886 470.6193320509361Q1455.834269058187 468.1997042537619 1454.5048032355637 465.9396123553025L1454.5048032355637 465.9396123553025Q1451.1545493625533 460.1431413686653 1446.6609548820868 459.5847657231635L1446.6609548820868 459.5847657231635Q1439.9338578196134 458.65413964732727 1437.3015154908196 466.1257375704697L1437.3015154908196 466.1257375704697Q1436.7431398453175 468.0135790385946 1436.477246680793 471.0979397470805Q1436.1847641998158 474.18230045556635 1434.988244959455 476.60192825274055Q1433.7651364026415 479.0215560499148 1432.355902630661 480.7232723028725Q1430.9466688586801 482.39839923937774 1429.7501496183195 483.80763301135835Q1428.527041061506 485.19027746688647 1428.1547906311719 487.2642441501787L1428.1547906311719 487.2642441501787Q1426.6657889098337 495.29421771882284 1421.7999439990326 496.4109690098264ZM1438.4448560982753 418.078842740867L1438.4448560982753 418.078842740867Q1434.695762478478 428.18278299280337 1437.4876407059867 434.1653791946078L1437.4876407059867 434.1653791946078Q1439.3754821741115 437.5422223840707 1442.3534856167876 437.728347599238L1442.3534856167876 437.728347599238Q1447.77770617309 438.2867232447398 1448.8146895147363 436.8774894727591Q1449.8516728563825 435.46825570077857 1451.2343173119104 433.8728967136307Q1452.6435510838912 432.3041270429353 1452.2713006535566 429.0336411192822Q1451.8990502232223 425.76315519562917 1451.712925008055 423.2371701326451Q1451.5267997928877 420.711185069661 1449.9314408057398 417.5204670953653Q1448.336081818592 414.356338437522 1447.77770617309 410.71360208353445Q1447.2193305275885 407.0442764130944 1447.0332053124214 403.6940225400839L1447.0332053124214 403.6940225400839Q1446.2887044517522 396.2224246169415 1443.6829514394105 396.2224246169415L1443.6829514394105 396.2224246169415Q1441.795109971286 396.2224246169415 1441.343091591594 398.16344471797134Q1440.8644838954494 400.1310541354537 1440.6783586802824 403.3217721097494L1440.6783586802824 403.3217721097494Q1440.4922334651149 413.0268726148988 1438.4448560982753 418.078842740867ZM1508.9065446973052 357.69450507732097L1508.9065446973052 357.69450507732097Q1518.2659840885726 353.972000773976 1519.0104849492416 356.95000421665196L1519.0104849492416 356.95000421665196Q1523.6902046448754 355.8332529256485 1525.9237072268822 359.7684717606132L1525.9237072268822 359.7684717606132Q1526.6682080875512 361.0713482667839 1528.821942720201 365.1661030004634Q1530.9756773528504 369.28744705059535 1533.5016624158345 373.967166746229Q1536.0276474788186 378.6468864418627 1538.2611500608257 382.7416411755422Q1540.5212419592851 386.8629852256741 1541.2657428199539 388.2722189976547Q1542.010243680623 389.6814527696353 1543.1269949716266 389.86757798480255Q1544.24374626263 390.05370319996985 1545.387086870086 389.28261302284835L1545.387086870086 389.28261302284835Q1547.8067146672604 387.42136087117586 1546.7697313256142 383.6988565678309Q1545.7593373004206 379.9497629480334 1545.839105249778 377.79602831538386Q1545.9454625155877 375.64229368273425 1546.3177129459223 373.78104153106176L1546.3177129459223 373.78104153106176Q1547.4344642369258 368.54294618992634 1546.6899633762566 365.35222821563065Q1545.9454625155877 362.1880995577874 1545.9454625155877 359.36963201382616L1545.9454625155877 359.36963201382616Q1545.9454625155877 353.78587555880875 1555.0921873752354 353.78587555880875L1555.0921873752354 353.78587555880875Q1556.9534395269081 353.78587555880875 1559.3996566405347 353.86564350816616Q1561.8192844377088 353.972000773976 1566.68512934851 353.4933930778316Q1571.5509742593108 353.01478538168726 1575.1937106132984 356.0991460901731Q1578.8364469672858 359.183506798659 1577.5335704611152 367.0539444685883L1577.5335704611152 367.0539444685883Q1575.8584435246098 377.71626036602646 1576.044568739777 381.35899672001403Q1576.2306939549446 385.0017330740016 1576.2306939549446 388.16586173184487L1576.2306939549446 388.16586173184487Q1576.2306939549446 391.5427049213078 1575.0873533474885 398.083676768614L1575.0873533474885 398.083676768614Q1573.0399759806485 409.6766187418883 1573.9706020564852 414.54246365268926L1573.9706020564852 414.54246365268926Q1574.715102917154 418.823343601536 1574.715102917154 420.8973102848282L1574.715102917154 420.8973102848282L1574.715102917154 423.8753137275042Q1574.715102917154 424.43368937300596 1575.0873533474885 426.3215308411309Q1575.4861930942754 428.18278299280337 1574.9012281323212 430.15039241028575Q1574.3428524868195 432.11800182776807 1574.715102917154 434.35150440977503Q1575.0873533474885 436.58500699178205 1573.7844768413177 439.4832424851006Q1572.4816003351468 442.38147797841924 1572.5879576009568 445.8380891172396Q1572.6677255503141 449.2947002560599 1572.1093499048127 452.11316780002113Q1571.5509742593108 454.90504602752986 1572.6677255503141 458.65413964732727L1572.6677255503141 458.65413964732727Q1574.3428524868195 464.45061063396446 1569.8758473228056 479.0215560499148L1569.8758473228056 479.0215560499148Q1569.104757145684 482.58452445454503 1567.5359874749886 483.6215077961911Q1565.9406284878407 484.6319018213847 1565.1961276271716 485.19027746688647Q1564.4516267665028 485.7752424288407 1564.0793763361683 487.6364945805132L1564.0793763361683 487.6364945805132Q1563.1221609438796 491.3855882003106 1560.1441575012038 490.98674845352366L1560.1441575012038 490.98674845352366Q1556.208938666239 490.42837280802195 1553.7893108690648 483.14290010004675L1553.7893108690648 483.14290010004675Q1550.4124676796018 473.0389598481104 1548.365090312762 471.36383291160513Q1546.3177129459223 469.6887059750999 1545.280729604276 466.6841132159714Q1544.24374626263 463.70610977329545 1543.499245401961 460.51539179899976L1543.499245401961 460.51539179899976Q1542.010243680623 452.67154344552284 1540.5212419592851 451.4484348887095Q1539.0056509214946 450.25191564834864 1538.0750248456584 446.6889472437184Q1537.144398769822 443.1259788390882 1536.213772693986 441.6369771177502Q1535.2831466181497 440.1479753964122 1534.4322884916708 438.2867232447398Q1533.6080196816445 436.3988817766148 1532.6508042893556 434.5376296249423L1532.6508042893556 434.5376296249423Q1530.2311764921815 429.8579099293086 1527.9976739101744 430.4162855748104L1527.9976739101744 430.4162855748104Q1526.6682080875512 430.78853600514486 1526.2161897078593 433.68677149846343Q1525.7375820117152 436.58500699178205 1525.3653315813806 440.706351041914L1525.3653315813806 440.706351041914Q1524.248580290377 452.67154344552284 1521.6428272780356 457.90963878665826L1521.6428272780356 457.90963878665826Q1523.3179542145408 462.7754836974592 1524.1422230245673 466.7904704817813Q1524.993081151046 470.80545726610336 1523.7699725942327 476.3360350882159Q1522.5734533538719 481.84002359387597 1521.8289524932027 485.19027746688647Q1521.0578623160816 488.56712065634946 1520.233593506055 491.09310571933355Q1519.3827353795762 493.61909078231764 1518.2659840885726 494.92196728848836Q1517.149232797569 496.2248437946591 1515.474105861064 495.95895063013444Q1513.7723896081063 495.6664681491573 1513.2140139626042 494.92196728848836Q1512.6556383171026 494.17746642781935 1512.097262671601 493.43296556715035L1512.097262671601 493.43296556715035Q1510.79438616543 490.98674845352366 1507.6036681911344 489.8699971625202Q1504.4395395332915 488.75324587151664 1503.110073710668 487.07811893501145Q1501.8071972044975 485.4029919985062 1501.4349467741629 483.14290010004675Q1501.0626963438283 480.9093975180397 1500.982928394471 478.2770551892458Q1500.876571128661 475.6713021769043 1499.6534625718477 472.5869414684185Q1498.4569433314869 469.50258075993264 1498.4569433314869 467.4552033930929Q1498.4569433314869 465.3812367098007 1498.8291937618212 463.78587772265286Q1499.2014441921558 462.2171080519575 1499.5736946224904 460.62174906480965Q1499.945945052825 459.0263900776618 1498.8291937618212 455.6761362046513L1498.8291937618212 455.6761362046513Q1496.5691018633618 448.73632461055814 1500.132070267992 444.2693194465442L1500.132070267992 444.2693194465442Q1502.7378232803335 440.52022582674675 1502.3655728499991 437.91447281440526L1502.3655728499991 437.91447281440526Q1501.2488215589954 432.49025225810254 1498.0846929011523 430.78853600514486L1498.0846929011523 430.78853600514486Q1496.5691018633618 429.8579099293086 1496.5691018633618 428.5550334231379L1496.5691018633618 428.5550334231379Q1496.5691018633618 425.76315519562917 1495.7448330533355 424.3539214236485Q1494.8939749268568 422.94468765166795 1495.6384757875255 420.711185069661Q1496.3829766481947 418.45109317120153 1495.4523505723585 416.9620914498635L1495.4523505723585 416.9620914498635Q1495.4523505723585 416.7759662346963 1495.0003321926665 413.1332298807087Q1494.5217244965222 409.4904935267211 1494.043116800378 403.7737904894413Q1493.591098420686 398.083676768614 1493.0327227751843 391.43634765549797Q1492.4743471296827 384.81560785883437 1492.2882219145151 378.6468864418627L1492.2882219145151 378.6468864418627Q1491.5437210538462 364.4216021397944 1492.5541150790398 362.00197434262014Q1493.591098420686 359.55575722899346 1495.7448330533355 358.43900593799Q1497.898567685985 357.3222546469865 1500.3181954831593 356.95000421665196L1500.3181954831593 356.95000421665196Q1505.5562908242948 356.39162857115025 1508.9065446973052 357.69450507732097ZM1665.0390109061748 355.8332529256485L1665.0390109061748 355.8332529256485Q1667.458638703349 355.8332529256485 1670.6227673611922 359.7684717606132L1670.6227673611922 359.7684717606132Q1672.1383583989825 362.00197434262014 1672.1383583989825 365.1661030004634L1672.1383583989825 365.1661030004634Q1672.1383583989825 371.3348244174351 1667.8308891336835 375.9347761637114Q1663.523419868384 380.5081385935352 1662.0344181470462 383.48614203621116Q1660.5454164257083 386.4907347953396 1660.4390591598983 389.4687382380156Q1660.359291210541 392.47333099714405 1659.8009155650393 394.5207083639838Q1659.2425399195374 396.594675047276 1658.0991993120815 398.4559271989485L1658.0991993120815 398.4559271989485Q1655.6795715149074 402.76339646424765 1651.185977034441 403.8801477552512L1651.185977034441 403.8801477552512Q1650.2553509586046 408.18761702055036 1647.7293658956203 411.35174567839357Q1645.2033808326364 414.54246365268926 1644.5652372377774 415.84534015886004Q1643.9005043264658 417.14821666503076 1643.5282538961312 418.26496795603424L1643.5282538961312 418.26496795603424Q1642.597627820295 420.711185069661 1641.2947513141241 422.5724372213335L1641.2947513141241 422.5724372213335Q1640.151410706668 445.1999455223804 1640.5236611370028 454.90504602752986L1640.5236611370028 454.90504602752986Q1640.8959115673372 470.24708162060165 1635.1260298971524 476.7880534679078L1635.1260298971524 476.7880534679078Q1633.0520632138603 479.606521011869 1632.307562353191 485.66888516303084Q1631.5630614925224 491.75783863064515 1630.8185606318532 494.07110916200946Q1630.0740597711842 496.4109690098264 1627.8139678727248 496.70345149080345Q1625.580465290718 496.9693446553281 1623.98510630357 496.03871857949184Q1622.389747316422 495.1080925036556 1621.3793532912284 493.61909078231764Q1620.3423699495822 492.1300890609796 1619.4915118231036 490.42837280802195Q1618.6672430130773 488.75324587151664 1616.6996335955948 486.89199371984415Q1614.7320241781124 485.00415225171923 1614.8383814439223 480.9093975180397Q1614.9181493932797 476.7880534679078 1615.210631874257 473.43779959489734Q1615.4765250387816 470.0609564054344 1614.652256228755 468.0135790385946Q1613.8013981022762 465.9396123553025 1612.6846468112728 464.07836020363Q1611.567895520269 462.2171080519575 1610.4245549128132 460.51539179899976L1610.4245549128132 460.51539179899976Q1608.1910523308063 456.979012710822 1608.6696600269509 452.77790071133273Q1609.1216784066426 448.5501993953909 1609.4939288369771 445.57219595271494L1609.4939288369771 445.57219595271494Q1610.7968053431478 437.91447281440526 1610.6106801279805 435.6543809159458L1610.6106801279805 435.6543809159458Q1609.8661792673117 430.4162855748104 1610.982930558315 424.06143894267143L1610.982930558315 424.06143894267143Q1609.4939288369771 421.45568593032993 1608.749427976308 418.6372183863688L1608.749427976308 418.6372183863688Q1607.4465514701376 413.7979627920203 1604.6280839261763 412.8407473997316L1604.6280839261763 412.8407473997316Q1599.0177381547062 411.16562046322633 1596.7842355726991 403.6940225400839L1596.7842355726991 403.6940225400839Q1595.109108636194 397.8975515534467 1595.9333774462204 396.2224246169415Q1596.7842355726991 394.5207083639838 1596.9703607878664 393.96233271848206L1596.9703607878664 393.96233271848206Q1597.5287364333683 392.47333099714405 1590.8016393708947 386.67686001050686L1590.8016393708947 386.67686001050686Q1587.4513854978843 383.8849817829981 1586.0421517259038 379.7636377328662Q1584.632917953923 375.64229368273425 1583.0375589667754 372.9301834045829Q1581.4687892960799 370.2180731264316 1579.9531982582894 367.79844532925733L1579.9531982582894 367.79844532925733Q1576.9751948156133 362.5603499881219 1578.4641965369515 358.81125636832445L1578.4641965369515 358.81125636832445Q1579.9531982582894 356.20550335598296 1584.0745423084215 355.54077044467135Q1588.1958863585535 354.90262684981224 1592.2906410922326 356.28527130534036Q1596.4119851423645 357.69450507732097 1599.2304526863259 357.8806302924882Q1602.0223309138348 358.06675550765544 1604.548315976819 357.9869875582981Q1607.0743010398028 357.8806302924882 1609.0419104572852 357.8008623431308Q1610.982930558315 357.69450507732097 1612.1262711657712 357.8806302924882L1612.1262711657712 357.8806302924882Q1612.87077202644 359.55575722899346 1614.4661310135878 361.0713482667839Q1616.0349006842832 362.5603499881219 1616.6996335955948 365.1661030004634Q1617.3643665069064 367.79844532925733 1617.444134456264 372.10591459455657Q1617.5504917220737 376.38679454340325 1619.3053866079363 379.3913873025317Q1621.0868708102514 382.3693907452077 1621.5654785063955 384.81560785883437Q1622.0174968860877 387.2352356560086 1622.3099793670647 389.4687382380156Q1622.5758725315893 391.72883013647504 1622.948122961924 393.3241891236229Q1623.3469627087109 394.8929587943183 1624.6498392148817 395.07908400948554L1624.6498392148817 395.07908400948554Q1625.9527157210525 395.45133443982 1626.5110913665542 393.5900822881475Q1627.0694670120558 391.72883013647504 1627.6278426575575 388.9103625925139L1627.6278426575575 388.9103625925139Q1629.3295589105153 380.5081385935352 1631.3769362773553 377.71626036602646L1631.3769362773553 377.71626036602646Q1633.7965640745294 374.52554239173077 1634.647422201008 369.10132183542805Q1635.4982803274868 363.6771012791254 1636.056655972989 361.25747348195114Q1636.6150316184905 358.81125636832445 1638.476283770163 357.2424866976291Q1640.3375359218355 355.6471277104812 1644.2727547568 356.20550335598296Q1648.2079735917648 356.7638790014847 1652.861103970946 357.4286119127963Q1657.5408236665796 358.06675550765544 1660.5454164257083 356.95000421665196Q1663.523419868384 355.8332529256485 1665.0390109061748 355.8332529256485Z " fill="#f7c5cc" transform="matrix(0.5232820288627968,0,0,0.5232820288627967,0,76.15783443569143)"/></g></svg>